<svg xmlns="http://www.w3.org/2000/svg" width="69" height="28" viewBox="0 0 69 28">
    <g fill="#000" fill-rule="nonzero">
        <path d="M12.977 3.717c.774-.964 1.3-2.258 1.161-3.58-1.134.056-2.517.744-3.318 1.709-.72.825-1.356 2.173-1.19 3.44 1.273.11 2.544-.633 3.347-1.57M14.124 5.533c-1.849-.11-3.42 1.044-4.303 1.044s-2.235-.988-3.697-.962c-1.903.028-3.668 1.098-4.634 2.8C-.496 11.82.966 16.87 2.897 19.643c.938 1.372 2.069 2.882 3.558 2.828 1.407-.055 1.959-.906 3.67-.906 1.709 0 2.206.906 3.695.879 1.545-.028 2.51-1.373 3.449-2.746 1.076-1.564 1.516-3.074 1.544-3.157-.028-.027-2.979-1.153-3.006-4.53-.028-2.827 2.317-4.172 2.427-4.255-1.324-1.948-3.393-2.167-4.11-2.223"/>
        <g>
            <path d="M32.553 1.708c4.018 0 6.815 2.754 6.815 6.764 0 4.024-2.855 6.793-6.915 6.793h-4.448V22.3H24.79V1.708h7.762zm-4.548 10.874h3.687c2.798 0 4.39-1.498 4.39-4.096 0-2.597-1.592-4.081-4.375-4.081h-3.702v8.177zM40.166 18.034c0-2.64 2.023-4.153 5.753-4.381l4.003-.243v-1.142c0-1.67-1.104-2.583-3.07-2.583-1.622 0-2.798.828-3.042 2.098h-2.898c.086-2.669 2.611-4.61 6.026-4.61 3.673 0 6.07 1.913 6.07 4.881V22.3h-2.97v-2.468h-.072c-.847 1.612-2.712 2.625-4.736 2.625-2.984 0-5.064-1.77-5.064-4.423zm9.756-1.328V15.55l-3.572.229c-2.009.128-3.056.87-3.056 2.169 0 1.256 1.09 2.07 2.798 2.07 2.18 0 3.83-1.385 3.83-3.312zM55.738 27.81v-2.47c.2.029.689.057.947.057 1.42 0 2.224-.599 2.712-2.14l.287-.914L54.246 7.36h3.357l3.788 12.158h.072L65.25 7.36h3.271L62.883 23.1c-1.291 3.611-2.769 4.796-5.897 4.796-.244 0-1.033-.029-1.248-.086z"/>
        </g>
    </g>
</svg>
