<svg width="290" height="190" viewBox="0 0 290 190" fill="none" xmlns="http://www.w3.org/2000/svg">
<path d="M190.06 134.977C190.06 137.553 189.037 140.023 187.215 141.844C185.394 143.666 182.924 144.689 180.348 144.689H102.652C100.076 144.689 97.6059 143.666 95.7845 141.844C93.9632 140.023 92.9399 137.553 92.9399 134.977V86.4163H190.06V134.977Z" fill="white"/>
<path d="M162.927 76.2196C166.95 76.2196 170.211 72.9584 170.211 68.9356C170.211 64.9128 166.95 61.6516 162.927 61.6516C158.904 61.6516 155.643 64.9128 155.643 68.9356C155.643 72.9584 158.904 76.2196 162.927 76.2196Z" fill="white"/>
<path d="M120.012 76.2196C124.035 76.2196 127.296 72.9584 127.296 68.9356C127.296 64.9128 124.035 61.6516 120.012 61.6516C115.989 61.6516 112.728 64.9128 112.728 68.9356C112.728 72.9584 115.989 76.2196 120.012 76.2196Z" fill="white"/>
<path d="M190.06 134.977C190.06 137.553 189.037 140.023 187.215 141.844C185.394 143.666 182.924 144.689 180.348 144.689H102.652C100.076 144.689 97.6059 143.666 95.7845 141.844C93.9632 140.023 92.9399 137.553 92.9399 134.977V86.4163H190.06V134.977Z" stroke="#414141" stroke-width="2.5" stroke-linecap="round" stroke-linejoin="round"/>
<path d="M162.927 76.2196C166.95 76.2196 170.211 72.9584 170.211 68.9356C170.211 64.9128 166.95 61.6516 162.927 61.6516C158.904 61.6516 155.643 64.9128 155.643 68.9356C155.643 72.9584 158.904 76.2196 162.927 76.2196Z" stroke="#414141" stroke-width="2.5" stroke-linecap="round" stroke-linejoin="round"/>
<path d="M120.012 76.2196C124.035 76.2196 127.296 72.9584 127.296 68.9356C127.296 64.9128 124.035 61.6516 120.012 61.6516C115.989 61.6516 112.728 64.9128 112.728 68.9356C112.728 72.9584 115.989 76.2196 120.012 76.2196Z" stroke="#414141" stroke-width="2.5" stroke-linecap="round" stroke-linejoin="round"/>
<path d="M180.348 52.085C182.923 52.085 185.394 53.1085 187.215 54.9297C189.036 56.7509 190.059 59.2212 190.06 61.7969V86.417H101.868V134.978C101.868 135.185 101.952 135.385 102.099 135.531C102.245 135.678 102.444 135.761 102.651 135.761H190.029C189.844 138.05 188.851 140.21 187.215 141.846L186.866 142.177C185.085 143.79 182.762 144.689 180.348 144.689H102.651L102.17 144.678C99.9295 144.566 97.7955 143.682 96.1328 142.177L95.7842 141.846C94.0768 140.138 93.0714 137.859 92.9521 135.459L92.9404 134.978V61.7969C92.9405 59.2213 93.963 56.7509 95.7842 54.9297C97.6055 53.1083 100.077 52.085 102.652 52.085H180.348ZM120.013 61.6523C115.99 61.6523 112.729 64.9137 112.729 68.9365C112.729 72.9592 115.99 76.2197 120.013 76.2197C124.035 76.2196 127.297 72.9591 127.297 68.9365C127.297 64.9138 124.035 61.6525 120.013 61.6523ZM162.927 61.6523C158.904 61.6525 155.643 64.9138 155.643 68.9365C155.643 72.9591 158.904 76.2196 162.927 76.2197C166.949 76.2197 170.211 72.9592 170.211 68.9365C170.211 64.9137 166.95 61.6523 162.927 61.6523Z" fill="#FFA179"/>
<path d="M172.639 52.0852H180.348C182.924 52.0852 185.394 53.1084 187.215 54.9298C189.037 56.7511 190.06 59.2214 190.06 61.7972V134.977C190.06 137.553 189.037 140.023 187.215 141.844C185.394 143.666 182.924 144.689 180.348 144.689H102.652C100.076 144.689 97.6059 143.666 95.7845 141.844C93.9632 140.023 92.9399 137.553 92.9399 134.977V61.7972C92.9399 59.2214 93.9632 56.7511 95.7845 54.9298C97.6059 53.1084 100.076 52.0852 102.652 52.0852H110.3M129.36 52.0852H153.64M92.9399 86.4165H190.06M120.012 68.9357V45.3113M162.927 68.9357V45.3113M120.012 76.2197C124.035 76.2197 127.296 72.9586 127.296 68.9358C127.296 64.9129 124.035 61.6518 120.012 61.6518C115.989 61.6518 112.728 64.9129 112.728 68.9358C112.728 72.9586 115.989 76.2197 120.012 76.2197ZM162.927 76.2197C166.95 76.2197 170.211 72.9586 170.211 68.9358C170.211 64.9129 166.95 61.6518 162.927 61.6518C158.904 61.6518 155.643 64.9129 155.643 68.9358C155.643 72.9586 158.904 76.2197 162.927 76.2197Z" stroke="#414141" stroke-width="2.5" stroke-linecap="round" stroke-linejoin="round"/>
<path d="M132.571 118.057C132.571 116.153 132.9 114.34 133.557 112.618C134.214 110.873 135.03 109.344 136.004 108.029C136.979 106.692 138.01 105.638 139.098 104.868C140.185 104.075 141.16 103.678 142.021 103.678C142.384 103.678 142.746 103.769 143.109 103.95C143.494 104.109 143.687 104.369 143.687 104.732C143.687 105.049 143.505 105.4 143.143 105.786C142.78 106.148 142.214 106.715 141.443 107.485C141.035 107.893 140.593 108.358 140.117 108.879C139.664 109.4 139.222 109.955 138.792 110.545C138.361 111.134 137.976 111.746 137.636 112.38C137.296 113.015 137.047 113.638 136.888 114.25C137.659 113.57 138.52 113.105 139.472 112.856C140.423 112.607 141.262 112.482 141.987 112.482C142.894 112.482 143.766 112.652 144.604 112.992C145.443 113.309 146.179 113.796 146.814 114.454C147.448 115.088 147.947 115.893 148.31 116.867C148.695 117.819 148.887 118.929 148.887 120.198C148.887 121.309 148.706 122.328 148.344 123.258C147.981 124.164 147.46 124.957 146.78 125.637C146.123 126.294 145.318 126.815 144.366 127.201C143.437 127.563 142.395 127.745 141.239 127.745C140.106 127.745 139.007 127.609 137.942 127.337C136.9 127.042 135.982 126.532 135.189 125.807C134.396 125.082 133.761 124.096 133.285 122.85C132.809 121.603 132.571 120.006 132.571 118.057ZM136.446 120.028C136.446 121.524 136.832 122.657 137.602 123.428C138.395 124.198 139.574 124.583 141.137 124.583C141.704 124.583 142.248 124.504 142.769 124.345C143.29 124.187 143.755 123.926 144.163 123.563C144.57 123.178 144.888 122.68 145.114 122.068C145.364 121.456 145.488 120.697 145.488 119.79C145.488 119.224 145.375 118.691 145.148 118.193C144.944 117.694 144.638 117.264 144.231 116.901C143.845 116.516 143.381 116.221 142.837 116.017C142.293 115.791 141.704 115.677 141.069 115.677C139.619 115.677 138.486 116.074 137.67 116.867C136.854 117.66 136.446 118.714 136.446 120.028Z" fill="#414141"/>
</svg>
