<svg xmlns="http://www.w3.org/2000/svg" xmlns:xlink="http://www.w3.org/1999/xlink" width="130" height="29" viewBox="0 0 130 29">
    <defs>
        <path id="a" d="M0 .018h34.307v28.844H0z"/>
        <path id="c" d="M0 28.982h129.985V.138H0z"/>
    </defs>
    <g fill="none" fill-rule="evenodd">
        <path fill="#000" d="M42.37 26.95c-.238-.064-.48-.117-.714-.192-1.427-.456-2.172-1.494-2.43-2.927a6.298 6.298 0 0 1-.078-1.089c-.007-2.417-.01-4.833-.001-7.25.006-1.871 1.079-3.3 2.824-3.753a5.276 5.276 0 0 1 2.853.05c1.335.394 2.206 1.505 2.344 2.97.052.546.058 1.097.086 1.67h-2.026v-1.063c-.007-1.16-.719-1.907-1.848-1.94-1.218-.034-2.11.697-2.124 1.846-.03 2.655-.03 5.311 0 7.967.013 1.15.877 1.873 2.075 1.846 1.181-.026 1.957-.77 1.976-1.913.012-.73.003-1.46.001-2.19 0-.036-.012-.072-.026-.15h-1.91v-1.745h3.918v7.528c-.286 0-.581.015-.874-.01-.077-.007-.173-.123-.21-.21-.118-.277-.212-.562-.337-.904-.52.938-1.38 1.247-2.297 1.459H42.37z"/>
        <g transform="translate(0 .12)">
            <mask id="b" fill="#fff">
                <use xlink:href="#a"/>
            </mask>
            <path fill="#000" d="M8.824 13.52h24.44v-2.016c-.001-1.14-.514-1.658-1.646-1.658H10.454c-.1 0-.2-.004-.3.003-.765.057-1.31.604-1.326 1.37-.017.753-.004 1.508-.004 2.302zm.014 1.09c-.007.12-.017.207-.017.293 0 3.803-.003 7.605.002 11.407.001.96.566 1.509 1.53 1.509H31.68c1.05 0 1.583-.539 1.583-1.604V14.61H8.839zm-.691-4.873c-.832.23-1.707.435-2.556.718-.6.201-.908.844-.8 1.502.041.257.13.506.205.79.268-.041.51-.088.755-.114.396-.044.632.107.679.419.042.28-.146.503-.502.587-.204.048-.41.088-.65.14.224.841.437 1.65.656 2.46.307 1.138.62 2.275.929 3.413.016.061.026.123.04.185.082.367-.053.63-.364.707-.276.069-.533-.102-.63-.446-.261-.943-.512-1.89-.769-2.834-.434-1.599-.893-3.19-1.288-4.799-.125-.506-.078-1.055-.111-1.61-.708.426-1.508.852-2.245 1.37-.492.345-.58 1.022-.318 1.573.117.247.267.48.415.74.263-.135.502-.266.748-.384.32-.153.598-.073.74.201.141.273.045.534-.274.718-.215.124-.436.238-.677.37.078.142.14.262.207.378l3.93 6.776c.069.119.185.254.17.367-.027.201-.088.48-.229.56-.144.084-.411 0-.605-.068-.095-.033-.15-.191-.213-.3-1.657-2.855-3.314-5.71-4.968-8.567-.801-1.383-.446-2.748.93-3.54C7.526 7.499 13.699 3.95 19.875.405c1.319-.758 2.716-.379 3.484.932.19.325.383.649.565.978.17.309.088.574-.205.741-.543.31-1.096.604-1.652.889-.293.15-.581.059-.713-.192-.14-.267-.045-.555.257-.728.368-.211.745-.407 1.114-.608-.307-.928-.865-1.398-1.631-1.34a1.64 1.64 0 0 0-.667.215c-4.29 2.456-8.576 4.92-12.861 7.383a.404.404 0 0 0-.179.196c.915-.241 1.83-.48 2.743-.724C15.534 6.71 20.94 5.27 26.343 3.835c1.468-.39 2.714.333 3.128 1.803.098.35.192.703.279 1.056.09.365-.056.628-.415.713-.959.23-1.92.448-2.883.664-.315.07-.576-.086-.643-.363-.075-.31.075-.565.414-.648.667-.163 1.337-.31 2.006-.465.12-.027.237-.062.415-.11-.132-.375-.212-.748-.387-1.068-.303-.554-.933-.765-1.598-.59l-11.041 2.93c-1.229.327-2.457.654-3.688 1.065h.361c6.446 0 12.892.002 19.337-.002.602 0 1.173.085 1.669.454.642.478 1.006 1.114 1.006 1.927.004 5.087.008 10.173-.002 15.26-.002 1.319-1.002 2.308-2.365 2.394-.1.006-.2.005-.3.005-7.06 0-14.118-.001-21.177.002-.699 0-1.342-.148-1.873-.63-.505-.461-.797-1.031-.797-1.726-.003-5.112-.011-10.224.013-15.336.002-.467.22-.933.345-1.433z" mask="url(#b)"/>
        </g>
        <path fill="#000" d="M70.536 15.444v11.171c-.562 0-1.097.008-1.631-.009-.07-.002-.16-.117-.199-.199-.033-.073-.01-.173-.01-.261V12.36v-.47h1.182c.463 0 .927.016 1.389-.006.277-.012.383.081.443.358.523 2.442 1.065 4.88 1.598 7.32.286 1.313.563 2.627.846 3.94.016.073.044.142.103.326.15-.69.279-1.275.405-1.86.702-3.264 1.401-6.529 2.111-9.791.023-.106.144-.27.223-.272.908-.02 1.818-.012 2.746-.012V26.58h-1.897V15.555l-.085-.007c-.206.938-.403 1.879-.62 2.815-.606 2.63-1.224 5.255-1.825 7.886-.065.285-.175.393-.472.375-.45-.027-.901-.018-1.351-.002-.238.008-.35-.058-.407-.311-.791-3.527-1.594-7.051-2.395-10.576-.023-.102-.056-.202-.085-.304l-.069.013M88.62 17.05v9.54h-1.979V11.895c.535 0 1.057-.014 1.577.013.09.005.201.167.255.28 1.441 3.023 2.877 6.05 4.313 9.077a.84.84 0 0 0 .231.321v-9.666h1.971v14.693c-.438 0-.883.016-1.326-.012-.096-.007-.212-.158-.267-.268-1.514-2.989-3.021-5.982-4.53-8.974l-.166-.326-.079.017M60.793 18.582c.774 0 1.523.042 2.264-.012.739-.055 1.206-.572 1.236-1.32.032-.803.027-1.609.001-2.412-.019-.578-.386-1.057-.907-1.09-.854-.052-1.714-.014-2.594-.014v4.848zm3.79.803c.973.246 1.544.802 1.777 1.672.083.312.11.645.116.969.017.793.006 1.586.006 2.38 0 .597.044.658.593.844v1.586c-.601-.084-1.175-.115-1.723-.253-.61-.153-.876-.658-.898-1.254-.04-1.056-.028-2.114-.054-3.17-.008-.337-.026-.684-.111-1.007-.137-.52-.51-.874-1.037-.908-.808-.053-1.62-.014-2.47-.014v6.362h-2.09v-14.7h.5c1.402.005 2.805-.019 4.206.024 1.935.06 2.978 1.16 3.008 3.11.01.655.01 1.31 0 1.965-.021 1.327-.481 1.95-1.823 2.394zM54.005 21.2l-1.188-5.862-.073.012-1.18 5.85h2.441zm3.245 5.398h-2.086l-.778-3.57h-3.207l-.778 3.574h-2.024c.135-.612.263-1.207.398-1.8.946-4.16 1.898-8.321 2.835-12.484.073-.324.185-.462.537-.436.485.036.976.02 1.463.005.241-.007.347.066.404.317 1.06 4.689 2.131 9.375 3.198 14.063.022.095.023.194.038.331zM114.175 21.196l-1.182-5.82-.088.015-1.172 5.805h2.442zm3.26 5.417c-.674 0-1.32.008-1.965-.012-.067-.002-.162-.164-.185-.265-.228-1.004-.444-2.01-.664-3.016-.021-.096-.05-.19-.082-.307h-3.186c-.24 1.099-.488 2.172-.701 3.252-.057.288-.169.368-.443.358-.536-.019-1.074-.006-1.667-.006.162-.728.314-1.42.47-2.11.92-4.038 1.845-8.076 2.749-12.118.088-.394.227-.543.635-.507.472.04.95.017 1.426.006.211-.005.301.065.35.284 1.066 4.701 2.14 9.4 3.211 14.1.022.094.03.193.051.341zM103.143 18.917c.83 0 1.618.034 2.4-.01.665-.039 1.08-.433 1.103-1.064.04-1.029.04-2.061-.001-3.09-.026-.629-.45-.997-1.077-1.037-.411-.026-.824-.015-1.236-.017-.394-.002-.787 0-1.189 0v5.218zm-.02 1.78v5.895h-2.057V11.928c.082-.013.153-.034.224-.034 1.477.003 2.954-.022 4.43.022 1.898.055 2.974 1.143 3.046 3.056.035.943.03 1.889-.01 2.83-.068 1.666-1.185 2.786-2.846 2.87-.774.038-1.551.018-2.327.024-.135.002-.27 0-.46 0zM121.285 18.655c.113-.303.2-.533.284-.765.662-1.854 1.336-3.704 1.973-5.567.123-.36.293-.456.641-.438.521.026 1.045.006 1.621.006-.3.75-.576 1.447-.857 2.142-.855 2.116-1.714 4.23-2.56 6.35a1.732 1.732 0 0 0-.117.619c-.009 1.711-.005 3.423-.005 5.134v.447h-2.088v-1.1c0-1.497.004-2.995-.005-4.492-.001-.194-.04-.4-.113-.581-1.092-2.71-2.193-5.417-3.292-8.124l-.152-.391c.742 0 1.427-.012 2.112.014.087.004.201.19.245.312.73 2.017 1.448 4.037 2.17 6.056.036.1.076.2.143.378"/>
        <mask id="d" fill="#fff">
            <use xlink:href="#c"/>
        </mask>
        <path fill="#000" d="M82.184 26.592h2.064V11.925h-2.064z" mask="url(#d)"/>
        <path fill="#231F20" d="M127.1 13.727V12.21h-.538v-.308h1.441v.308h-.536v1.516zM128.234 13.727v-1.824h.548l.33 1.244.325-1.244h.549v1.824h-.34V12.29l-.36 1.436h-.353l-.358-1.436v1.436z" mask="url(#d)"/>
    </g>
</svg>
