<svg xmlns="http://www.w3.org/2000/svg" width="70" height="29" viewBox="0 0 70 29">
    <g fill="none" fill-rule="nonzero">
        <g fill="#3C4043">
            <path d="M33.138 14.125v8.383h-2.575V1.815h6.829a6.019 6.019 0 0 1 4.414 1.799c2.335 2.244 2.479 6.023.288 8.449l-.288.297c-1.2 1.171-2.67 1.765-4.414 1.765h-4.254zm0-9.769v7.228h4.318a3.315 3.315 0 0 0 2.543-1.073c1.343-1.435 1.311-3.745-.08-5.132a3.455 3.455 0 0 0-2.463-1.023h-4.318zM49.595 7.888c1.903 0 3.406.528 4.51 1.567 1.103 1.04 1.647 2.492 1.647 4.324v8.729h-2.463v-1.964h-.112c-1.072 1.617-2.479 2.426-4.254 2.426-1.504 0-2.783-.462-3.79-1.386a4.437 4.437 0 0 1-1.52-3.465c0-1.47.544-2.624 1.615-3.499 1.072-.874 2.511-1.303 4.303-1.303 1.535 0 2.782.297 3.774.858v-.61c0-.908-.384-1.766-1.056-2.36a3.677 3.677 0 0 0-2.479-.974c-1.439 0-2.574.627-3.406 1.881l-2.271-1.469c1.215-1.831 3.055-2.755 5.502-2.755zm-3.327 10.28c0 .693.32 1.337.848 1.733.575.462 1.28.71 1.999.693a4.028 4.028 0 0 0 2.895-1.238c.847-.825 1.279-1.798 1.279-2.92-.8-.66-1.92-.99-3.359-.974-1.04 0-1.919.264-2.622.775-.688.512-1.04 1.156-1.04 1.931zM69.89 8.35l-8.605 20.379h-2.654l3.198-7.129-5.645-13.25h2.798l4.079 10.165h.048L67.09 8.35z"/>
        </g>
        <path fill="#4285F4" d="M22.726 12.31c0-.809-.064-1.617-.192-2.41H11.675v4.572h6.221c-.256 1.468-1.087 2.788-2.303 3.614v2.97h3.71c2.176-2.063 3.423-5.116 3.423-8.746z"/>
        <path fill="#34A853" d="M11.675 23.927c3.103 0 5.725-1.056 7.629-2.871l-3.71-2.97c-1.04.726-2.368 1.138-3.919 1.138-3.007 0-5.55-2.096-6.461-4.9H1.39v3.069c1.952 4.01 5.934 6.534 10.284 6.534z"/>
        <path fill="#FBBC04" d="M5.214 14.323a7.385 7.385 0 0 1 0-4.554V6.716H1.39a12.115 12.115 0 0 0 0 10.66l3.823-3.053z"/>
        <path fill="#EA4335" d="M11.675 4.868a6.094 6.094 0 0 1 4.414 1.782l3.295-3.4C17.289 1.239 14.538.133 11.675.166c-4.35 0-8.332 2.541-10.284 6.551l3.823 3.07c.911-2.822 3.454-4.918 6.461-4.918z"/>
    </g>
</svg>
