<?xml version="1.0" encoding="utf-8"?>
<!-- Generator: Adobe Illustrator 24.1.3, SVG Export Plug-In . SVG Version: 6.00 Build 0)  -->
<svg version="1.1" xmlns="http://www.w3.org/2000/svg" xmlns:xlink="http://www.w3.org/1999/xlink" x="0px" y="0px"
	 viewBox="0 0 384.79532 72.28346" style="enable-background:new 0 0 384.79532 72.28346;" xml:space="preserve">
<style type="text/css">
	.st0{display:none;}
	.st1{display:inline;opacity:0.5;}
	.st2{fill:#FF00FF;}
	.st3{fill:#FFFFFF;}
	.st4{fill:#00FFFF;}
	.st5{opacity:0.5;}
	.st6{display:inline;fill:#00FFFF;}
	.st7{display:inline;}
	.st8{display:inline;fill:none;}
</style>
<g id="Service_Name">
	<g>
		<path d="M278.15234,18.45895h12.12305c7.32227,0,12.75342,5.625,12.75342,12.60791c0,7.03125-5.43115,12.65674-12.80176,12.65674
			h-5.47949v10.13477h-6.59521V18.45895z M284.74756,24.56881v13.04443h5.04297c3.92773,0,6.59521-2.90918,6.59521-6.54639
			c0-3.58838-2.66748-6.49805-6.59521-6.49805H284.74756z"/>
		<path d="M304.7793,39.69869c0-9.40771,6.88623-14.79053,14.06299-14.79053c3.73389,0,7.07959,1.55176,9.1167,3.97656V25.4902
			h6.54639v28.36816h-6.54639v-3.68555c-2.08545,2.61865-5.47998,4.26758-9.21387,4.26758
			C311.90771,54.44039,304.7793,48.96041,304.7793,39.69869z M328.29834,39.60152c0-4.80078-3.63721-8.72852-8.48633-8.72852
			s-8.58301,3.83105-8.58301,8.72852c0,4.94629,3.73389,8.82568,8.58301,8.82568S328.29834,44.49947,328.29834,39.60152z"/>
		<path d="M348.7666,52.45211l-11.6377-26.96191h6.98242l7.9043,19.10596l7.46777-19.10596h6.88672l-16.92383,41.46094h-6.64404
			L348.7666,52.45211z"/>
	</g>
</g>
<g id="Samsung_Lettermark">
	<path d="M27.21569,28.00473c-0.16014-0.66635-0.12269-1.37024-0.03359-1.73695c0.22601-1.05378,0.94141-2.22885,3.02706-2.22885
		c1.93451,0,3.07348,1.20216,3.07348,3.00366c0,0.61093,0,2.04688,0,2.04688h8.24937v-2.32312
		c0-7.1944-6.48665-8.34114-11.16271-8.34114c-5.87453,0-10.67463,1.94996-11.55281,7.35056
		c-0.24015,1.48249-0.28139,2.78691,0.06587,4.45786c1.43225,6.76171,13.18631,8.71685,14.89616,12.99525
		c0.32029,0.79541,0.22334,1.81696,0.06455,2.44203c-0.27124,1.11188-1.0176,2.23403-3.2298,2.23403
		c-2.0662,0-3.30195-1.20348-3.30195-3.01143l-0.01168-3.18206H18.4252v2.52853c0,7.39447,5.80734,9.61831,12.02279,9.61831
		c5.9753,0,10.88251-2.0366,11.68318-7.57139c0.39779-2.85277,0.09946-4.70965-0.03491-5.41354
		C40.70037,33.93217,28.1571,31.87625,27.21569,28.00473z M134.77374,28.08605c-0.14719-0.65336-0.10458-1.34697-0.02844-1.70981
		c0.23633-1.05883,0.94791-2.21339,2.99728-2.21339c1.91005,0,3.02974,1.19065,3.02974,2.97797c0,0.60303,0,2.02233,0,2.02233
		h8.15373v-2.30516c0-7.12591-6.3885-8.24555-11.01419-8.24555c-5.82549,0-10.58299,1.92036-11.45204,7.28218
		c-0.22983,1.45926-0.28669,2.75451,0.07882,4.4075c1.41666,6.68539,13.05581,8.62508,14.74502,12.85311
		c0.29834,0.80067,0.21303,1.82209,0.0607,2.4239c-0.25311,1.10037-0.9931,2.20706-3.18721,2.20706
		c-2.05838,0-3.29694-1.18301-3.29694-2.96637l-0.0025-3.17421h-8.77622v2.52336c0,7.31047,5.72602,9.51621,11.89361,9.51621
		c5.90675,0,10.78568-2.01847,11.56827-7.49006c0.37315-2.82687,0.09164-4.66829-0.05818-5.36173
		C148.11757,33.97608,135.71262,31.9137,134.77374,28.08605z M209.87166,46.1061l-7.78839-26.62712H189.81v32.72753h8.11888
		l-0.47131-27.47927l8.36429,27.47927h11.77089V19.47898h-8.17188L209.87166,46.1061z M53.83236,19.47898l-6.12631,33.07241h8.93386
		l4.61669-30.61623l4.50559,30.61623h8.87182l-6.10054-33.07241H53.83236z M103.78699,19.47898L99.61451,45.3312l-4.16985-25.85222
		H81.95233l-0.71545,33.07241h8.26607l0.2235-30.61623l5.68724,30.61623h8.38625l5.69247-30.61623l0.22466,30.61623h8.28683
		l-0.74003-33.07241H103.78699z M180.63985,19.47898h-8.36429v24.46661c0.01295,0.42607,0,0.90519-0.07367,1.25652
		c-0.17429,0.82135-0.87038,2.40199-3.17807,2.40199c-2.27791,0-2.99211-1.58063-3.15358-2.40199
		c-0.08386-0.35133-0.09419-0.83045-0.08386-1.25652V19.47898h-8.36179v23.70716c-0.01033,0.61093,0.03741,1.85968,0.07367,2.18642
		c0.57722,6.17791,5.44583,8.18342,11.52556,8.18342c6.09152,0,10.95737-2.00551,11.54503-8.18342
		c0.04642-0.32674,0.1071-1.57549,0.071-2.18642V19.47898z M238.07028,33.98771v4.82338h3.38994v4.78579
		c0.01027,0.42739-0.013,0.8885-0.08664,1.25784c-0.13423,0.89236-0.98265,2.4123-3.38858,2.4123
		c-2.39166,0-3.22461-1.51994-3.36917-2.4123c-0.06068-0.36934-0.08659-0.83045-0.08659-1.25784V28.48121
		c0-0.53466,0.03622-1.11956,0.14983-1.56254c0.16397-0.80586,0.87817-2.3943,3.28793-2.3943
		c2.52972,0,3.1613,1.67491,3.30594,2.3943c0.09547,0.47644,0.10065,1.27584,0.10065,1.27584v1.83505h8.32951v-1.08474
		c0,0,0.03741-1.13247-0.06332-2.18893c-0.6263-6.20382-5.73769-8.1666-11.59921-8.1666c-5.8719,0-10.87988,1.98092-11.60956,8.1666
		c-0.06586,0.5657-0.16664,1.58326-0.16664,2.18893v13.90439c0,0.60567,0.01945,1.07442,0.13187,2.18116
		c0.54362,6.03331,5.77243,8.17187,11.62105,8.17187c5.88481,0,11.07751-2.13856,11.63028-8.17187
		c0.09813-1.10674,0.10846-1.57549,0.12141-2.18116v-8.8615H238.07028z"/>
</g>
<g id="Guides" class="st0">
	<g class="st1">
		<rect x="249.76897" y="25.51181" class="st2" width="28.34646" height="28.34646"/>
		<g>
			<g>
				<path class="st3" d="M262.27097,39.69351l-7.35158-9.54688h3.85841l5.45508,7.21826l5.45508-7.21826h3.79297l-7.38477,9.54688
					l7.75,9.9126h-3.8916l-5.78809-7.58398l-5.68848,7.58398h-3.89162L262.27097,39.69351z"/>
			</g>
		</g>
	</g>
	<g class="st1">
		<rect y="53.85827" class="st4" width="18.4252" height="18.4252"/>
		<g>
			<path class="st3" d="M1.56951,69.06776v-2.19141c0-1.11133,0.76758-1.92676,1.89502-1.92676
				c1.15967,0,1.90332,0.83984,1.90332,1.91895v2.20703c0,1.15137-0.71191,1.87109-1.90332,1.87109
				C2.24139,70.94666,1.56951,70.19471,1.56951,69.06776z M4.59197,69.05994v-2.1748c0-0.74414-0.3999-1.2002-1.11914-1.2002
				c-0.73584,0-1.13574,0.49609-1.13574,1.2002v2.1582c0,0.7041,0.38379,1.15918,1.11963,1.15918
				C4.19207,70.20252,4.59197,69.73963,4.59197,69.05994z"/>
			<path class="st3" d="M6.80682,69.78748c0.37549,0,0.59131,0.23145,0.59131,0.5752s-0.21582,0.57617-0.59131,0.57617
				c-0.35986,0-0.57568-0.23242-0.57568-0.57617S6.46307,69.78748,6.80682,69.78748z"/>
			<path class="st3" d="M8.11785,68.93983c0-0.53613,0.17578-1.06348,0.44775-1.44727l1.63916-2.46289h0.91943l-1.32715,1.95898
				c0.16797-0.04785,0.34375-0.08008,0.53564-0.08008c1.07129,0,1.92676,0.85547,1.92676,2.02344
				c0,1.15137-0.89551,2.01465-2.0708,2.01465C8.98943,70.94666,8.11785,70.05897,8.11785,68.93983z M11.49187,68.91541
				c0-0.71973-0.59131-1.31055-1.31104-1.31055c-0.72754,0-1.30322,0.58301-1.30322,1.31055s0.57568,1.32715,1.30322,1.32715
				C10.90057,70.24256,11.49187,69.65174,11.49187,68.91541z"/>
			<path class="st3" d="M12.99578,69.85877l0.71924-0.43164c0.22412,0.44824,0.63184,0.7998,1.25537,0.7998
				c0.67188,0,1.21533-0.49609,1.21533-1.21582c0-0.77539-0.57568-1.24707-1.22314-1.24707
				c-0.59961,0-0.9917,0.30371-1.22363,0.75977l-0.71143-0.31152l0.44775-3.18262h3.15039v0.72754h-2.51074l-0.24805,1.71094
				c0.27197-0.23145,0.65576-0.40723,1.14355-0.40723c1.02344,0,1.95898,0.64746,1.95898,1.9502
				c0,1.14355-0.84766,1.93555-1.99902,1.93555C14.02703,70.94666,13.32342,70.4828,12.99578,69.85877z"/>
		</g>
	</g>
	<g class="st1">
		<rect class="st4" width="18.4252" height="18.4252"/>
		<g>
			<path class="st3" d="M1.56951,15.20949v-2.19141c0-1.11133,0.76758-1.92676,1.89502-1.92676
				c1.15967,0,1.90332,0.83984,1.90332,1.91895v2.20703c0,1.15137-0.71191,1.87109-1.90332,1.87109
				C2.24139,17.08839,1.56951,16.33644,1.56951,15.20949z M4.59197,15.20167v-2.1748c0-0.74414-0.3999-1.2002-1.11914-1.2002
				c-0.73584,0-1.13574,0.49609-1.13574,1.2002v2.1582c0,0.7041,0.38379,1.15918,1.11963,1.15918
				C4.19207,16.34425,4.59197,15.88136,4.59197,15.20167z"/>
			<path class="st3" d="M6.80682,15.92921c0.37549,0,0.59131,0.23145,0.59131,0.5752s-0.21582,0.57617-0.59131,0.57617
				c-0.35986,0-0.57568-0.23242-0.57568-0.57617S6.46307,15.92921,6.80682,15.92921z"/>
			<path class="st3" d="M8.11785,15.08156c0-0.53613,0.17578-1.06348,0.44775-1.44727l1.63916-2.46289h0.91943l-1.32715,1.95898
				c0.16797-0.04785,0.34375-0.08008,0.53564-0.08008c1.07129,0,1.92676,0.85547,1.92676,2.02344
				c0,1.15137-0.89551,2.01465-2.0708,2.01465C8.98943,17.08839,8.11785,16.2007,8.11785,15.08156z M11.49187,15.05714
				c0-0.71973-0.59131-1.31055-1.31104-1.31055c-0.72754,0-1.30322,0.58301-1.30322,1.31055s0.57568,1.32715,1.30322,1.32715
				C10.90057,16.38429,11.49187,15.79347,11.49187,15.05714z"/>
			<path class="st3" d="M12.99578,16.0005l0.71924-0.43164c0.22412,0.44824,0.63184,0.7998,1.25537,0.7998
				c0.67188,0,1.21533-0.49609,1.21533-1.21582c0-0.77539-0.57568-1.24707-1.22314-1.24707
				c-0.59961,0-0.9917,0.30371-1.22363,0.75977l-0.71143-0.31152l0.44775-3.18262h3.15039v0.72754h-2.51074l-0.24805,1.71094
				c0.27197-0.23145,0.65576-0.40723,1.14355-0.40723c1.02344,0,1.95898,0.64746,1.95898,1.9502
				c0,1.14355-0.84766,1.93555-1.99902,1.93555C14.02703,17.08839,13.32342,16.62453,12.99578,16.0005z"/>
		</g>
	</g>
	<g class="st5">
		<rect x="366.37012" class="st6" width="18.4252" height="18.4252"/>
		<g class="st7">
			<path class="st3" d="M367.93964,15.20949v-2.19141c0-1.11133,0.76758-1.92676,1.89502-1.92676
				c1.15967,0,1.90332,0.83984,1.90332,1.91895v2.20703c0,1.15137-0.71191,1.87109-1.90332,1.87109
				C368.61151,17.08839,367.93964,16.33644,367.93964,15.20949z M370.9621,15.20167v-2.1748c0-0.74414-0.3999-1.2002-1.11914-1.2002
				c-0.73584,0-1.13574,0.49609-1.13574,1.2002v2.1582c0,0.7041,0.38379,1.15918,1.11963,1.15918
				C370.56219,16.34425,370.9621,15.88136,370.9621,15.20167z"/>
			<path class="st3" d="M373.17694,15.92921c0.37549,0,0.59131,0.23145,0.59131,0.5752s-0.21582,0.57617-0.59131,0.57617
				c-0.35986,0-0.57568-0.23242-0.57568-0.57617S372.83319,15.92921,373.17694,15.92921z"/>
			<path class="st3" d="M374.48798,15.08156c0-0.53613,0.17578-1.06348,0.44775-1.44727l1.63916-2.46289h0.91943l-1.32715,1.95898
				c0.16797-0.04785,0.34375-0.08008,0.53564-0.08008c1.07129,0,1.92676,0.85547,1.92676,2.02344
				c0,1.15137-0.89551,2.01465-2.0708,2.01465C375.35956,17.08839,374.48798,16.2007,374.48798,15.08156z M377.862,15.05714
				c0-0.71973-0.59131-1.31055-1.31104-1.31055c-0.72754,0-1.30322,0.58301-1.30322,1.31055s0.57568,1.32715,1.30322,1.32715
				C377.27069,16.38429,377.862,15.79347,377.862,15.05714z"/>
			<path class="st3" d="M379.36591,16.0005l0.71924-0.43164c0.22412,0.44824,0.63184,0.7998,1.25537,0.7998
				c0.67188,0,1.21533-0.49609,1.21533-1.21582c0-0.77539-0.57568-1.24707-1.22314-1.24707
				c-0.59961,0-0.9917,0.30371-1.22363,0.75977l-0.71143-0.31152l0.44775-3.18262h3.15039v0.72754h-2.51074l-0.24805,1.71094
				c0.27197-0.23145,0.65576-0.40723,1.14355-0.40723c1.02344,0,1.95898,0.64746,1.95898,1.9502
				c0,1.14355-0.84766,1.93555-1.99902,1.93555C380.39716,17.08839,379.69354,16.62453,379.36591,16.0005z"/>
		</g>
	</g>
	<g class="st5">
		<rect x="366.37012" y="53.85827" class="st6" width="18.4252" height="18.4252"/>
		<g class="st7">
			<path class="st3" d="M367.93964,69.06776v-2.19141c0-1.11133,0.76758-1.92676,1.89502-1.92676
				c1.15967,0,1.90332,0.83984,1.90332,1.91895v2.20703c0,1.15137-0.71191,1.87109-1.90332,1.87109
				C368.61151,70.94666,367.93964,70.19471,367.93964,69.06776z M370.9621,69.05994v-2.1748c0-0.74414-0.3999-1.2002-1.11914-1.2002
				c-0.73584,0-1.13574,0.49609-1.13574,1.2002v2.1582c0,0.7041,0.38379,1.15918,1.11963,1.15918
				C370.56219,70.20252,370.9621,69.73963,370.9621,69.05994z"/>
			<path class="st3" d="M373.17694,69.78748c0.37549,0,0.59131,0.23145,0.59131,0.5752s-0.21582,0.57617-0.59131,0.57617
				c-0.35986,0-0.57568-0.23242-0.57568-0.57617S372.83319,69.78748,373.17694,69.78748z"/>
			<path class="st3" d="M374.48798,68.93983c0-0.53613,0.17578-1.06348,0.44775-1.44727l1.63916-2.46289h0.91943l-1.32715,1.95898
				c0.16797-0.04785,0.34375-0.08008,0.53564-0.08008c1.07129,0,1.92676,0.85547,1.92676,2.02344
				c0,1.15137-0.89551,2.01465-2.0708,2.01465C375.35956,70.94666,374.48798,70.05897,374.48798,68.93983z M377.862,68.91541
				c0-0.71973-0.59131-1.31055-1.31104-1.31055c-0.72754,0-1.30322,0.58301-1.30322,1.31055s0.57568,1.32715,1.30322,1.32715
				C377.27069,70.24256,377.862,69.65174,377.862,68.91541z"/>
			<path class="st3" d="M379.36591,69.85877l0.71924-0.43164c0.22412,0.44824,0.63184,0.7998,1.25537,0.7998
				c0.67188,0,1.21533-0.49609,1.21533-1.21582c0-0.77539-0.57568-1.24707-1.22314-1.24707
				c-0.59961,0-0.9917,0.30371-1.22363,0.75977l-0.71143-0.31152l0.44775-3.18262h3.15039v0.72754h-2.51074l-0.24805,1.71094
				c0.27197-0.23145,0.65576-0.40723,1.14355-0.40723c1.02344,0,1.95898,0.64746,1.95898,1.9502
				c0,1.14355-0.84766,1.93555-1.99902,1.93555C380.39716,70.94666,379.69354,70.4828,379.36591,69.85877z"/>
		</g>
	</g>
	<g class="st1">
		<rect x="366.37012" class="st4" width="18.4252" height="18.4252"/>
		<g>
			<path class="st3" d="M367.93964,15.20949v-2.19141c0-1.11133,0.76758-1.92676,1.89502-1.92676
				c1.15967,0,1.90332,0.83984,1.90332,1.91895v2.20703c0,1.15137-0.71191,1.87109-1.90332,1.87109
				C368.61151,17.08839,367.93964,16.33644,367.93964,15.20949z M370.9621,15.20167v-2.1748c0-0.74414-0.3999-1.2002-1.11914-1.2002
				c-0.73584,0-1.13574,0.49609-1.13574,1.2002v2.1582c0,0.7041,0.38379,1.15918,1.11963,1.15918
				C370.56219,16.34425,370.9621,15.88136,370.9621,15.20167z"/>
			<path class="st3" d="M373.17694,15.92921c0.37549,0,0.59131,0.23145,0.59131,0.5752s-0.21582,0.57617-0.59131,0.57617
				c-0.35986,0-0.57568-0.23242-0.57568-0.57617S372.83319,15.92921,373.17694,15.92921z"/>
			<path class="st3" d="M374.48798,15.08156c0-0.53613,0.17578-1.06348,0.44775-1.44727l1.63916-2.46289h0.91943l-1.32715,1.95898
				c0.16797-0.04785,0.34375-0.08008,0.53564-0.08008c1.07129,0,1.92676,0.85547,1.92676,2.02344
				c0,1.15137-0.89551,2.01465-2.0708,2.01465C375.35956,17.08839,374.48798,16.2007,374.48798,15.08156z M377.862,15.05714
				c0-0.71973-0.59131-1.31055-1.31104-1.31055c-0.72754,0-1.30322,0.58301-1.30322,1.31055s0.57568,1.32715,1.30322,1.32715
				C377.27069,16.38429,377.862,15.79347,377.862,15.05714z"/>
			<path class="st3" d="M379.36591,16.0005l0.71924-0.43164c0.22412,0.44824,0.63184,0.7998,1.25537,0.7998
				c0.67188,0,1.21533-0.49609,1.21533-1.21582c0-0.77539-0.57568-1.24707-1.22314-1.24707
				c-0.59961,0-0.9917,0.30371-1.22363,0.75977l-0.71143-0.31152l0.44775-3.18262h3.15039v0.72754h-2.51074l-0.24805,1.71094
				c0.27197-0.23145,0.65576-0.40723,1.14355-0.40723c1.02344,0,1.95898,0.64746,1.95898,1.9502
				c0,1.14355-0.84766,1.93555-1.99902,1.93555C380.39716,17.08839,379.69354,16.62453,379.36591,16.0005z"/>
		</g>
	</g>
	<g class="st1">
		<rect x="366.37012" y="53.85827" class="st4" width="18.4252" height="18.4252"/>
		<g>
			<path class="st3" d="M367.93964,69.06776v-2.19141c0-1.11133,0.76758-1.92676,1.89502-1.92676
				c1.15967,0,1.90332,0.83984,1.90332,1.91895v2.20703c0,1.15137-0.71191,1.87109-1.90332,1.87109
				C368.61151,70.94666,367.93964,70.19471,367.93964,69.06776z M370.9621,69.05994v-2.1748c0-0.74414-0.3999-1.2002-1.11914-1.2002
				c-0.73584,0-1.13574,0.49609-1.13574,1.2002v2.1582c0,0.7041,0.38379,1.15918,1.11963,1.15918
				C370.56219,70.20252,370.9621,69.73963,370.9621,69.05994z"/>
			<path class="st3" d="M373.17694,69.78748c0.37549,0,0.59131,0.23145,0.59131,0.5752s-0.21582,0.57617-0.59131,0.57617
				c-0.35986,0-0.57568-0.23242-0.57568-0.57617S372.83319,69.78748,373.17694,69.78748z"/>
			<path class="st3" d="M374.48798,68.93983c0-0.53613,0.17578-1.06348,0.44775-1.44727l1.63916-2.46289h0.91943l-1.32715,1.95898
				c0.16797-0.04785,0.34375-0.08008,0.53564-0.08008c1.07129,0,1.92676,0.85547,1.92676,2.02344
				c0,1.15137-0.89551,2.01465-2.0708,2.01465C375.35956,70.94666,374.48798,70.05897,374.48798,68.93983z M377.862,68.91541
				c0-0.71973-0.59131-1.31055-1.31104-1.31055c-0.72754,0-1.30322,0.58301-1.30322,1.31055s0.57568,1.32715,1.30322,1.32715
				C377.27069,70.24256,377.862,69.65174,377.862,68.91541z"/>
			<path class="st3" d="M379.36591,69.85877l0.71924-0.43164c0.22412,0.44824,0.63184,0.7998,1.25537,0.7998
				c0.67188,0,1.21533-0.49609,1.21533-1.21582c0-0.77539-0.57568-1.24707-1.22314-1.24707
				c-0.59961,0-0.9917,0.30371-1.22363,0.75977l-0.71143-0.31152l0.44775-3.18262h3.15039v0.72754h-2.51074l-0.24805,1.71094
				c0.27197-0.23145,0.65576-0.40723,1.14355-0.40723c1.02344,0,1.95898,0.64746,1.95898,1.9502
				c0,1.14355-0.84766,1.93555-1.99902,1.93555C380.39716,70.94666,379.69354,70.4828,379.36591,69.85877z"/>
		</g>
	</g>
	<rect x="249.76897" y="25.51181" class="st8" width="28.34646" height="28.34646"/>
</g>
</svg>
