<svg width="290" height="190" viewBox="0 0 290 190" fill="none" xmlns="http://www.w3.org/2000/svg">
<path d="M193.258 83.9846H143.746V147.608H193.258V83.9846Z" fill="white"/>
<path d="M129.635 41.7578H97.3301C93.0154 41.7578 89.5176 45.2556 89.5176 49.5703V147.598H137.438L137.447 49.5703C137.447 45.2556 133.95 41.7578 129.635 41.7578Z" fill="white"/>
<path d="M168.502 105.078C178.313 105.078 186.266 113.031 186.266 122.842C186.265 132.652 178.312 140.606 168.502 140.606C158.691 140.606 150.738 132.652 150.738 122.842C150.738 113.031 158.691 105.078 168.502 105.078ZM136.894 132.52C136.893 136.834 133.396 140.332 129.081 140.332H114.795C119.11 140.332 122.607 136.834 122.607 132.52V84.8215C122.607 84.0326 123.247 83.3928 124.036 83.3928H136.894V132.52ZM170.391 112.412C168.346 112.041 166.238 112.278 164.327 113.094C162.416 113.91 160.787 115.269 159.643 117.003C158.498 118.737 157.887 120.769 157.887 122.847C157.887 124.925 158.498 126.957 159.643 128.691C160.787 130.425 162.416 131.784 164.327 132.6C166.238 133.416 168.346 133.653 170.391 133.281C172.435 132.91 174.325 131.945 175.826 130.508C174.788 129.52 173.962 128.33 173.397 127.012C172.833 125.694 172.543 124.275 172.545 122.842C172.545 121.41 172.835 119.993 173.399 118.677C173.963 117.361 174.789 116.173 175.826 115.186C174.325 113.749 172.435 112.784 170.391 112.412ZM129.081 41.7581C133.396 41.7582 136.894 45.2559 136.894 49.5706V76.9827H122.607V49.5706C122.607 45.2558 119.11 41.7581 114.795 41.7581H129.081Z" fill="#FFA179"/>
<path d="M193.258 83.9846H143.746V147.608H193.258V83.9846Z" stroke="black" stroke-width="2.5" stroke-linecap="round" stroke-linejoin="round"/>
<path d="M193.258 98.0862H143.746V147.598H193.258V98.0862Z" stroke="black" stroke-width="2.5" stroke-linecap="round" stroke-linejoin="round"/>
<path d="M168.502 140.605C178.313 140.605 186.266 132.652 186.266 122.842C186.266 113.031 178.313 105.078 168.502 105.078C158.691 105.078 150.738 113.031 150.738 122.842C150.738 132.652 158.691 140.605 168.502 140.605Z" stroke="black" stroke-width="2.5" stroke-linecap="round" stroke-linejoin="round"/>
<path d="M172.545 122.842C172.545 121.41 172.835 119.993 173.399 118.677C173.964 117.361 174.789 116.173 175.826 115.186C174.325 113.749 172.435 112.785 170.391 112.413C168.347 112.041 166.238 112.278 164.327 113.094C162.417 113.91 160.787 115.269 159.643 117.003C158.498 118.737 157.887 120.769 157.887 122.847C157.887 124.925 158.498 126.957 159.643 128.691C160.787 130.425 162.417 131.784 164.327 132.6C166.238 133.416 168.347 133.653 170.391 133.281C172.435 132.909 174.325 131.945 175.826 130.508C174.788 129.52 173.962 128.33 173.398 127.012C172.833 125.695 172.543 124.276 172.545 122.842V122.842Z" stroke="black" stroke-width="2.5" stroke-linecap="round" stroke-linejoin="round"/>
<path d="M188.678 88.3594H177.066V93.7012H188.678V88.3594Z" stroke="black" stroke-width="2.5" stroke-linecap="round" stroke-linejoin="round"/>
<path d="M168.502 93.7305C169.985 93.7305 171.188 92.5281 171.188 91.0449C171.188 89.5617 169.985 88.3594 168.502 88.3594C167.019 88.3594 165.816 89.5617 165.816 91.0449C165.816 92.5281 167.019 93.7305 168.502 93.7305Z" stroke="black" stroke-width="2.5" stroke-linecap="round" stroke-linejoin="round"/>
<path d="M159.938 88.3594V98.0859" stroke="black" stroke-width="2.5" stroke-linecap="round" stroke-linejoin="round"/>
<path d="M137.438 128.115V147.598H89.5176V128.115" stroke="black" stroke-width="2.5" stroke-linecap="round" stroke-linejoin="round"/>
<path d="M89.5176 76.9824H137.438" stroke="black" stroke-width="2.5" stroke-linecap="round" stroke-linejoin="round"/>
<path d="M95.1035 70.6445H106.285" stroke="black" stroke-width="2.5" stroke-linecap="round" stroke-linejoin="round"/>
<path d="M119.088 49.6292H130.26" stroke="black" stroke-width="2.5" stroke-linecap="round" stroke-linejoin="round"/>
<path d="M95.1035 83.9844H106.285" stroke="black" stroke-width="2.5" stroke-linecap="round" stroke-linejoin="round"/>
<path d="M129.635 41.7578H97.3301C93.0154 41.7578 89.5176 45.2556 89.5176 49.5703V132.52C89.5176 136.834 93.0154 140.332 97.3301 140.332H129.635C133.949 140.332 137.447 136.834 137.447 132.52V49.5703C137.447 45.2556 133.949 41.7578 129.635 41.7578Z" stroke="black" stroke-width="2.5" stroke-linecap="round" stroke-linejoin="round"/>
</svg>
