<svg xmlns="http://www.w3.org/2000/svg" width="1266" height="323" viewBox="0 0 1266 323">
    <path fill="#F1F1F1" fill-rule="evenodd" d="M933.177 279.813l36.954 26.824-11.308 15.55-36.954-26.824 11.308-15.55zM713.382 263.38c18.836.69 37.651 2.766 56.05 6.507.222.038.313.17.403.301.424 7.135.133 13.8-.953 20.444-.113 1.254-1.292 2.094-2.531 1.997l-33.841-4.89c-.222-.039-.353.055-.393.28-1.655 9.787-4.171 23.71-5.826 33.499-.04.225-.172.318-.393.28l-20.484-4.216c-.222-.038-.312-.169-.272-.394.366-2.02 6.397-39.19 7.937-53.397-.09-.132.172-.318.303-.411zM330.58 245.624l.08.012 18.087 5.042c.197.05.27.17.22.367-.447 1.76-8.063 34.163-10.288 46.598.072.121-.174.269-.296.342a327.418 327.418 0 0 1-33.653-5.458c-2.277 10.032-4.823 21.597-5.962 27.953.074.123-.171.27-.292.343a325.77 325.77 0 0 1-33.633-5.453l-15.854-2.746c.878-8.62 3.808-21.027 3.808-21.027l30.007 6.5c.193.049.316-.025.367-.22 2.064-8.528 5.147-20.651 7.213-29.178.049-.197.172-.27.369-.221l16.664 3.468 2.655.553c.01 0 .003.015.007.022l12.632 2.739c.195.046.318-.027.369-.222 2.064-8.529 5.147-20.651 7.211-29.18.05-.195.171-.267.37-.222zm796.218 32.09l26.488 14.084-14.084 26.488-26.488-14.084 14.084-26.488zM1251 285c8.284 0 15 6.716 15 15 0 8.284-6.716 15-15 15-8.284 0-15-6.716-15-15 0-8.284 6.716-15 15-15zM49.531 269.569l12.859 14.293-33.921 30.57-12.859-14.294 33.921-30.57zM515 276c8.284 0 15 6.716 15 15 0 8.284-6.716 15-15 15-8.284 0-15-6.716-15-15 0-8.284 6.716-15 15-15zM15 198c8.284 0 15 6.716 15 15 0 8.284-6.716 15-15 15-8.284 0-15-6.716-15-15 0-8.284 6.716-15 15-15zm1196.88-45.19c10.815.185 21.618.954 32.33 2.27l15.253 1.237c-.148 8.27-1.94 20.32-1.94 20.32l-28.974-3.58c-.187-.029-.298.052-.33.242-1.28 8.287-3.24 20.08-4.522 28.365-.03.191-.141.272-.332.242l-16.078-1.852-2.563-.297c-.01 0-.003-.013-.008-.02l-12.197-1.508c-.189-.028-.3.053-.332.242-1.28 8.288-3.24 20.08-4.52 28.367-.032.19-.14.269-.332.243l-17.553-3.226c-.19-.03-.269-.138-.238-.33.284-1.712 4.931-33.178 6.053-45.193-.078-.109.143-.27.254-.351 10.814.189 21.619.956 32.33 2.27.006 0 .014.002.017.003 1.363-9.735 2.858-20.951 3.432-27.093-.08-.11.142-.272.25-.351zM1097.304 146c8.453 0 15.305 6.855 15.305 15.31 0 8.456-6.852 15.31-15.305 15.31-8.452 0-15.304-6.854-15.304-15.31 0-8.455 6.852-15.31 15.304-15.31zM890.128 92.292c23.272-11.798 45.642-4.3 58.534 15.528 12.893 19.828 5.528 44.905-14.075 57.619l-15.758 10.22-14.087-21.664 14.656-9.992c9.816-7.312 12.442-16.607 7.312-24.496-5.13-7.89-16.175-9.288-26.632-2.967-3.531 2.135-13.85 8.983-13.85 8.983l-14.087-21.665s8.229-6.62 17.987-11.566zm-660.757-.298c17.999 4.646 35.705 10.61 52.686 18.073.206.084.267.228.328.373-.988 6.897-2.573 13.195-4.92 19.304-.354 1.173-1.654 1.724-2.827 1.37l-31.62-11.83c-.207-.082-.351-.021-.434.184-3.51 8.99-8.658 21.742-12.167 30.731-.083.206-.227.267-.433.184l-18.895-8.358c-.205-.083-.267-.228-.184-.433.748-1.852 13.831-36.04 18.095-49.27-.062-.144.227-.266.371-.328zm223.427-13.28l26.488 14.084-14.084 26.488-26.488-14.084 14.084-26.488zM56.497 17.799l4.502 25.446-17.395 3.471c-11.893 2.896-17.942 10.425-16.302 19.692 1.639 9.266 11.26 14.87 23.355 13.137 4.085-.586 16.258-2.858 16.258-2.858l4.503 25.448s-10.16 2.877-21.077 3.618c-26.03 1.768-43.693-13.876-47.813-37.165-4.12-23.29 12.458-43.494 35.47-47.538l18.499-3.251zm1030.663 1.02l16.107 13.339c.178.137.196.296.055.475-1.272 1.613-24.047 31.6-32.077 43.421.019.159-.3.2-.46.221-16.308-9.453-31.945-20.119-46.435-32.06-.178-.138-.196-.296-.214-.455 2.975-6.499 6.361-12.247 10.44-17.603.688-1.055 2.123-1.242 3.172-.575l27.583 20.205c.178.138.338.117.479-.062 6.056-7.865 14.815-18.978 20.871-26.844.141-.179.3-.2.479-.062zM714.65.355c.061-.12.306.005.428.067a310.141 310.141 0 0 1 12.655 29.836l.005.018c9.293-3.206 19.965-6.966 25.698-9.242.062-.122.306.002.426.063a308.579 308.579 0 0 1 12.655 29.836l5.823 14.152c-7.436 3.623-18.987 7.496-18.987 7.496l-9.964-27.44c-.059-.18-.181-.242-.365-.185-7.965 2.622-19.362 6.23-27.326 8.85-.184.059-.307-.003-.367-.187l-5.649-15.167-.899-2.418c-.004-.008.01-.009.015-.016l-4.194-11.552c-.06-.181-.183-.243-.366-.186-7.966 2.622-19.363 6.23-27.328 8.85-.183.058-.303-.003-.367-.185l-5.094-17.104c-.06-.184 0-.303.185-.362 1.655-.524 31.8-10.668 43.016-15.124zm509.657 9.966l14.723 12.365-29.337 34.993-14.723-12.365 29.337-34.993zm-1055.51 4.393l26.49 14.084-14.085 26.488-26.488-14.084 14.084-26.488zM387.025 6.12l5.614 18.388-43.662 13.37-5.614-18.388 43.662-13.37zM921 0c8.284 0 15 6.716 15 15 0 8.284-6.716 15-15 15-8.284 0-15-6.716-15-15 0-8.284 6.716-15 15-15z"/>
</svg>
